# xmcd
# Track frame offsets:
# 150
# 14856
# 33379
# 54300
# 66948
# 83888
# 100349
# 116434
# 139804
# 152400
# 180161
# 192231
# 206928
#
# Disc length: 2999 seconds
# Revision: 0
# Processed by: cddbd v1.5.1PL2 Copyright (c) Steve Scherf et al.
# Submitted via: VisiTrax 2.9.10.228 - For more info visit www.synapsa.com
#
DISCID=b00bb50d
DTITLE=Frank White and Mighty Blue - Soulsearching City Streets
DYEAR=1999
DGENRE=Blues
TTITLE0=Low Down Woman
TTITLE1=It's My Life Baby
TTITLE2=Blue Midnight
TTITLE3=Nobody But You
TTITLE4=That's Ok !
TTITLE5=Hustle Is On
TTITLE6=Aint Easy
TTITLE7=Deal The Cards
TTITLE8=Swinging Avantgarde Shit
TTITLE9=Black Night
TTITLE10=Crazy Mixed Up World
TTITLE11=Feel Like Jumping
TTITLE12=Soulsearching City Streets
EXTD=
EXTT0=
EXTT1=
EXTT2=
EXTT3=
EXTT4=
EXTT5=
EXTT6=
EXTT7=
EXTT8=
EXTT9=
EXTT10=
EXTT11=
EXTT12=
PLAYORDER=
